<svg width="32" height="32" viewBox="0 0 32 32" fill="none" xmlns="http://www.w3.org/2000/svg">
<g clip-path="url(#clip0_5_207)">
<g clip-path="url(#clip1_5_207)">
<path d="M1.71429 20C1.71429 20.3156 1.97015 20.5714 2.28572 20.5714H29.7143C30.0299 20.5714 30.2857 20.3156 30.2857 20V2.28571H1.71429V20Z" fill="#E74040"/>
<path d="M31.4286 0H0.571429C0.255859 0 0 0.255859 0 0.571429C0 0.886998 0.255859 1.14286 0.571429 1.14286H31.4286C31.7441 1.14286 32 0.886998 32 0.571429C32 0.255859 31.7441 0 31.4286 0Z" fill="#E74040"/>
<path d="M20.5715 29.7143H16.5715V22.8572H17.1429C17.4585 22.8572 17.7144 22.6013 17.7144 22.2857V21.7143H14.2858V22.2857C14.2858 22.6013 14.5416 22.8572 14.8572 22.8572H15.4286V29.7143H11.4286C10.4819 29.7143 9.71436 30.4819 9.71436 31.4286V32H22.2858V31.4286C22.2858 30.4819 21.5182 29.7143 20.5715 29.7143Z" fill="#E74040"/>
</g>
</g>
<defs>
<clipPath id="clip0_5_207">
<rect width="32" height="32" fill="white"/>
</clipPath>
<clipPath id="clip1_5_207">
<rect width="32" height="32" fill="white"/>
</clipPath>
</defs>
</svg>
